<svg width="169" height="38" viewBox="0 0 841.9 595.3" fill="none" xmlns="http://www.w3.org/2000/svg">
<path d="M81.928 16.2221L85.5206 17.1105C90.1829 18.1919 92.5157 20.5578 92.5157 24.2114C92.5157 26.4741 91.6059 28.3009 89.7929 29.6918C87.9767 31.0793 85.6772 31.7748 82.8945 31.7748C79.0287 31.7748 75.7327 30.863 73 29.0363L75.0495 25.0632C77.3924 26.737 79.9585 27.5722 82.7412 27.5722C84.2875 27.5722 85.5039 27.2893 86.3937 26.7236C87.2835 26.158 87.7267 25.3594 87.7267 24.3312C87.7267 22.7107 86.4903 21.6193 84.0176 21.0503L80.2684 20.2384C78.1822 19.7758 76.5459 18.9606 75.3595 17.7893C74.1731 16.618 73.5832 15.1473 73.5832 13.3704C73.5832 11.1842 74.4763 9.41068 76.2693 8.04641C78.0589 6.68214 80.3084 6 83.0111 6C86.3604 6 89.3597 6.86182 92.0158 8.58546L89.8129 12.4054C87.6734 10.938 85.4206 10.206 83.0511 10.206C81.6081 10.206 80.475 10.4622 79.6519 10.9779C78.8287 11.4937 78.4155 12.2124 78.4155 13.1375C78.4155 13.9594 78.6987 14.6116 79.2653 15.0874C79.8318 15.5632 80.7216 15.9426 81.9313 16.2254L81.928 16.2221Z" fill="#263238"/>
<path d="M96.6914 31.4254V6.34277H107.899C110.398 6.34277 112.451 7.1081 114.061 8.63875C115.671 10.1694 116.477 12.1193 116.477 14.4852C116.477 16.851 115.664 18.8009 114.041 20.3316C112.418 21.8622 110.355 22.6275 107.859 22.6275H101.29V31.4254H96.6914ZM107.319 10.5521H101.29V18.4216H107.319C108.555 18.4216 109.572 18.0489 110.372 17.3035C111.172 16.5582 111.568 15.6198 111.568 14.4885C111.568 13.3571 111.168 12.4188 110.372 11.6701C109.572 10.9247 108.555 10.5521 107.319 10.5521Z" fill="#263238"/>
<path d="M136.533 27.2195L136.029 31.4254H119.993V6.34277H124.552V27.2162H136.533V27.2195Z" fill="#263238"/>
<path d="M139.622 31.4254V6.34277H144.221V31.4221H139.622V31.4254Z" fill="#263238"/>
<path d="M146.887 10.5886L147.39 6.34607H168.412L167.909 10.5886H159.947V31.4254H155.388V10.5886H146.887Z" fill="#263238"/>
<path d="M19 31.345C12.1919 31.345 6.65499 25.8081 6.65499 19C6.65499 12.1919 12.1919 6.65499 19 6.65499V0C8.52172 0 0 8.52172 0 19C0 29.4783 8.52172 38 19 38C29.4783 38 38 29.4783 38 19H31.345C31.345 25.8081 25.8081 31.345 19 31.345Z" fill="url(#paint0_linear_248_519)"/>
<path d="M40 0C29.525 0 21 8.52172 21 19H27.655C27.655 12.1919 33.1919 6.65499 40 6.65499C46.8081 6.65499 52.345 12.1919 52.345 19C52.345 25.8081 46.8081 31.345 40 31.345V38C50.475 38 59 29.4783 59 19C59 8.52172 50.475 0 40 0Z" fill="url(#paint1_linear_248_519)"/>
<defs>
<linearGradient id="paint0_linear_248_519" x1="-0.692119" y1="19" x2="58.5306" y2="19" gradientUnits="userSpaceOnUse">
<stop stop-color="#7ACEFF"/>
<stop offset="0.5" stop-color="#5B80FA"/>
<stop offset="1" stop-color="#956BFA"/>
</linearGradient>
<linearGradient id="paint1_linear_248_519" x1="-1.04466" y1="19" x2="58.1781" y2="19" gradientUnits="userSpaceOnUse">
<stop stop-color="#7ACEFF"/>
<stop offset="0.5" stop-color="#5B80FA"/>
<stop offset="1" stop-color="#956BFA"/>
</linearGradient>
</defs>
</svg>
